# xmcd
#
# Track frame offsets:
#   150
#   17792
#   36607
#   51465
#   66950
#   85620
#   103132
#   126072
#   146722
#   164757
#   183675
#   203950
#   216892
#
# Disc length: 3192 seconds
#
# Revision: 1
# Processed by: cddbd v1.5.1PL0 Copyright (c) Steve Scherf et al.
# Submitted via: Media_Universe 3.0
#
DISCID=d00c760d
DTITLE=Yavuz Çetin - "Ýlk..."
DYEAR=1900
DGENRE=Blues
TTITLE0=Erkeðin olmak istiyorum
TTITLE1=Bilmem neden inat ettin
TTITLE2=Sahil
TTITLE3=Bodrum gecesi yüzünden
TTITLE4=Kimse bilemez
TTITLE5=Gecenin rengi
TTITLE6=Aðlamayý sevmem
TTITLE7=Çok istiyorum
TTITLE8=O'nun þarkýsý
TTITLE9=Hisset beni
TTITLE10=Fanki tonki zonki
TTITLE11=Birkaç saat
TTITLE12=Dünya
EXTD=
EXTT0=
EXTT1=
EXTT2=
EXTT3=
EXTT4=
EXTT5=
EXTT6=
EXTT7=
EXTT8=
EXTT9=
EXTT10=
EXTT11=
EXTT12=
PLAYORDER=
